# xmcd
#
# Track frame offsets:
#	150
#	37447
#	64778
#	87114
#	123078
#
# Disc length: 2098 seconds
#
# Revision: 0
# Processed by: cddbd v1.4PL0 Copyright (c) Steve Scherf et al.
# Submitted via: EasyCDDAExtractor 4.6.9.1
#
DISCID=3e083005
DTITLE=John Lee Hooker - The Cream [CD2 of 2)
DYEAR=1900
DGENRE=Blues
TTITLE0=Bar Room Drinking
TTITLE1=Little Girl
TTITLE2=Louise
TTITLE3=When My First Wife Left Me
TTITLE4=Boogie On
EXTD=
EXTT0=
EXTT1=
EXTT2=
EXTT3=
EXTT4=
PLAYORDER=
